<?xml version="1.0" encoding="utf-8"?>
<!-- Generator: Adobe Illustrator 27.6.1, SVG Export Plug-In . SVG Version: 6.00 Build 0)  -->
<svg version="1.1" id="Layer_1" xmlns="http://www.w3.org/2000/svg" xmlns:xlink="http://www.w3.org/1999/xlink" x="0px" y="0px"
	 viewBox="0 0 650 202.4" style="enable-background:new 0 0 650 202.4;" xml:space="preserve">
<g>
	<g>
		<path d="M170.1,131.2v3.4h-7v20.6h-4.4v-20.6h-7v-3.4H170.1z"/>
		<path d="M189.6,144.6v10.5h-4.1V145c0-2.7-1.2-4-3.5-4c-2.6,0-4.4,1.7-4.4,4.5v9.7h-4.1v-24.5l4.1-0.4v10.7c1.1-2,3.1-3.2,5.8-3.2
			C187.4,137.8,189.6,140.2,189.6,144.6z"/>
		<path d="M209.1,147.4h-11.7c0.2,3.3,2.1,5.1,5.6,5.1c2,0,4.1-0.5,5.8-1.5v3.2c-2.2,0.9-4.2,1.3-6.3,1.3c-5.7,0-9.2-3.4-9.2-8.9
			c0-5.5,3.2-8.8,8.4-8.8c4.8,0,7.4,3.2,7.4,8.6V147.4z M197.4,144.9h7.9c-0.2-2.7-1.4-4.3-3.7-4.3S197.8,142.2,197.4,144.9z"/>
		<path d="M237.2,131.2h4.4v24h-4.4v-10.6h-11.8v10.6h-4.4v-24h4.4v9.8h11.8V131.2z"/>
		<path d="M261.7,147.4H250c0.2,3.3,2.1,5.1,5.6,5.1c2,0,4.1-0.5,5.8-1.5v3.2c-2.2,0.9-4.2,1.3-6.3,1.3c-5.7,0-9.2-3.4-9.2-8.9
			c0-5.5,3.2-8.8,8.4-8.8c4.8,0,7.4,3.2,7.4,8.6V147.4z M249.9,144.9h7.9c-0.2-2.7-1.4-4.3-3.7-4.3S250.3,142.2,249.9,144.9z"/>
		<path d="M276.3,155.2c-0.3-0.9-0.5-1.7-0.5-2.8c-1.3,2.1-3.5,3.2-6.2,3.2c-3.2,0-5.2-1.5-5.2-4.3c0-2.5,1.6-4.1,5.4-5
			c4.9-1.2,5.9-1.9,5.9-3.1V143c0-1.4-1.5-2.2-3.6-2.2c-2.4,0-4.7,0.8-6.6,2.1v-3.3c2.1-1.1,4.6-1.9,7.2-1.9c4.5,0,7.1,2.2,7.1,6
			v7.3c0,2,0.2,3,0.5,4.1H276.3z M275.6,146.1c-0.5,0.8-1.4,1.3-4.6,2.1c-1.9,0.5-2.7,1.3-2.7,2.5c0,1.3,0.8,2.1,2.5,2.1
			c2.5,0,4.7-1.5,4.7-4.3V146.1z"/>
		<path d="M295.1,138.2v3.9c-0.7-0.4-1.4-0.5-2.2-0.5c-2.7,0-4.3,1.9-4.3,5.3v8.3h-4.1v-12.9c0-2-0.2-3-0.5-4.1h3.9
			c0.4,1,0.5,2,0.5,3.3v0.4c0.9-2.6,2.5-4.1,4.8-4.1C293.9,137.8,294.5,137.9,295.1,138.2z"/>
		<path d="M308.8,151.6v3.2c-1,0.5-2.2,0.8-3.5,0.8c-3.5,0-5.5-1.8-5.5-5.6v-9h-3.1v-1.6c2.6-0.8,4.4-2.6,5.3-5.8h1.9v4.7h4.7v2.8
			H304v8.3c0,2.3,0.7,3.1,2.3,3.1C307.2,152.4,308.2,152,308.8,151.6z"/>
		<path d="M319.3,146.6c0-5.4,3.5-8.8,8.9-8.8c5.5,0,8.9,3.4,8.9,8.8c0,5.5-3.5,8.9-8.9,8.9C322.8,155.5,319.3,152.1,319.3,146.6z
			 M332.9,146.6c0-3.7-1.6-5.8-4.7-5.8c-3,0-4.7,2.1-4.7,5.8c0,3.8,1.7,5.9,4.7,5.9C331.3,152.5,332.9,150.4,332.9,146.6z"/>
		<path d="M346.1,136.4v1.7h4.6v2.8h-4.6v14.2h-4.1v-14.2h-3.1v-1.6l3.1-1.2v-2.2c0-3.9,2-5.8,5.6-5.8c1.3,0,2.4,0.3,3.4,0.7v3.1
			c-0.7-0.4-1.5-0.7-2.3-0.7C347,133.2,346.1,134.1,346.1,136.4z"/>
		<path d="M380.6,148.3c0,4.1-3.2,6.9-8.9,6.9h-10.2c0.3-1.1,0.5-2.3,0.5-4.7v-14.5c0-2.4-0.2-3.6-0.5-4.7h9.8
			c5.2,0,8.1,2.3,8.1,5.9c0,2.7-1.8,4.5-5.2,5.2C378.4,143.1,380.6,145,380.6,148.3z M366,134.5c0.2,0.5,0.3,1.2,0.3,2.2v4.6h4.3
			c2.9,0,4.6-1.2,4.6-3.5c0-2.3-1.6-3.3-4.6-3.3H366z M371,151.9c3.4,0,5.3-1.3,5.3-3.9c0-2.5-1.9-3.8-5.3-3.8h-4.6v5.5
			c0,1-0.1,1.6-0.3,2.2H371z"/>
		<path d="M395.5,155.2c-0.3-0.9-0.5-1.7-0.5-2.8c-1.3,2.1-3.5,3.2-6.2,3.2c-3.2,0-5.2-1.5-5.2-4.3c0-2.5,1.6-4.1,5.4-5
			c4.9-1.2,5.9-1.9,5.9-3.1V143c0-1.4-1.5-2.2-3.6-2.2c-2.4,0-4.7,0.8-6.6,2.1v-3.3c2.1-1.1,4.6-1.9,7.2-1.9c4.5,0,7.1,2.2,7.1,6
			v7.3c0,2,0.2,3,0.5,4.1H395.5z M394.7,146.1c-0.5,0.8-1.4,1.3-4.6,2.1c-1.9,0.5-2.7,1.3-2.7,2.5c0,1.3,0.8,2.1,2.5,2.1
			c2.5,0,4.7-1.5,4.7-4.3V146.1z"/>
		<path d="M419.8,144.6v10.5h-4.1V145c0-2.6-1.2-4-3.5-4c-2.6,0-4.4,1.7-4.4,4.5v9.7h-4.1v-12.9c0-2-0.2-3-0.5-4.1h3.9
			c0.3,1,0.5,1.9,0.5,3.1c1.1-2.2,3.2-3.4,6-3.4C417.6,137.8,419.8,140.2,419.8,144.6z"/>
		<path d="M440.4,156.5c0,3.9-3.9,6.1-9,6.1c-5.4,0-8.4-2.3-8.4-4.9c0-1.8,1.3-3.1,3.4-3.6c-1.3-0.7-1.9-1.6-1.9-2.8
			c0-1.4,0.8-2.4,2.3-3c-1.8-1-2.9-2.6-2.9-4.7c0-3.5,2.7-5.8,7.1-5.8c1.2,0,2.3,0.2,3.1,0.6l6.1-0.9v3.3l-2.8-0.3
			c0.8,0.8,1.3,1.8,1.3,3.2c0,3.4-2.9,5.6-7.5,5.6c-0.9,0-1.8-0.1-2.6-0.3c-0.3,0.2-0.5,0.6-0.5,1c0,1.1,1.5,1.6,5,1.7
			c2.7,0.1,4.4,0.4,5.6,1.2C439.8,153.7,440.4,154.9,440.4,156.5z M436.4,157c0-1.6-1.7-1.8-4.2-1.9c-1.5-0.1-2-0.1-3.4-0.4
			c-1.2,0.4-1.9,1.2-1.9,2.4c0,1.6,1.5,2.7,4.7,2.7C434.4,159.8,436.4,158.9,436.4,157z M427.9,143.6c0,2,1.2,3.1,3.3,3.1
			c2.2,0,3.4-1.1,3.4-3.1c0-2-1.2-3.2-3.4-3.2C429.1,140.5,427.9,141.6,427.9,143.6z"/>
		<path d="M459.6,155.2h-4.9l-4.3-5.9c-0.9-1.2-1.4-1.6-2.2-1.6h-0.8v7.5h-4.1v-24.5l4.1-0.4v14.7h0.8c0.8,0,1.3-0.4,2.2-1.5
			l4.2-5.3h4.5l-4.9,5.7c-0.9,1.1-1.7,1.9-2.7,2.2c1,0.3,1.7,1,2.6,2.2L459.6,155.2z"/>
		<path d="M460.3,146.6c0-5.4,3.5-8.8,8.9-8.8c5.5,0,8.9,3.4,8.9,8.8c0,5.5-3.5,8.9-8.9,8.9C463.7,155.5,460.3,152.1,460.3,146.6z
			 M473.9,146.6c0-3.7-1.6-5.8-4.7-5.8c-3,0-4.7,2.1-4.7,5.8c0,3.8,1.7,5.9,4.7,5.9C472.2,152.5,473.9,150.4,473.9,146.6z"/>
		<path d="M498.3,155.2h-4.9l-4.3-5.9c-0.9-1.2-1.4-1.6-2.2-1.6h-0.8v7.5H482v-24.5l4.1-0.4v14.7h0.8c0.8,0,1.3-0.4,2.2-1.5l4.2-5.3
			h4.5l-4.9,5.7c-0.9,1.1-1.7,1.9-2.7,2.2c1,0.3,1.7,1,2.6,2.2L498.3,155.2z"/>
	</g>
	<g>
		<path d="M276.2,83.5v-0.4c5.9-0.6,9-3.9,9-9.3c0-7-5.4-10.8-15.5-10.8h-24.7v40c0,2-0.7,3.7-1.8,4v0.5h27.5
			c9.7,0,16.1-5.3,16.1-13.3C287,88.3,283.2,84.5,276.2,83.5z M255,68.9h14c4.5,0,6.1,1.3,6.1,4.5v2.1c0,3.7-1.7,5.3-6.1,5.3h-14
			V68.9z M276.6,95c0,5-1.8,6.8-6.7,6.8h-15.6v-0.4c0.7-0.9,0.8-2.3,0.8-4V86.5h14.8c4.7,0,6.7,2,6.7,6.4V95z"/>
		<path d="M85,47.3c-20.4,0-35.2,13.4-35.2,31.7c0,16.7,12.7,28.8,30,28.7c2,0,2.6,0,4.5-0.1v-7.2h-0.5c-0.3,0.9-2.1,1.3-4.3,1.3
			c-10.4,0-17.6-9.4-17.6-22.7c0-15.6,9.1-25.7,23.2-25.7c13.8,0,22.3,10,22.3,26.2c0,17.6-11.3,30.2-25.7,30.4l0.1,4
			c22.8,0,37.6-13.6,37.6-34.4C119.3,60.3,105.5,47.3,85,47.3z"/>
		<path d="M162.5,94.2h-0.4c-0.3-1.2-1.1-2.9-3.1-5.1l-23.7-26h-9.7v0.5c1,0.4,1.7,2,1.7,3.9v40.1h8.6V81.2c0-4-0.4-4.8-1-5.5
			l0.4-0.3l27.5,30.1v2.1h8.4V63.1h-8.6V94.2z"/>
		<path d="M181.5,103.1c0,1.7-0.8,3.6-1.8,4v0.5h37.5v-6.2h-26.6v-0.4c0.4-0.5,0.8-1.9,0.8-3.4v-11h22.1v-6.2h-22.1V69.2h25.8v-6.2
			h-35.7V103.1z"/>
		<g>
			<path d="M317.5,63.1h-10.6v0.5c1.4,0.4,1.4,1.6,0,4.7l-17.8,39.3h9.3l6.9-15.4H321l6.9,15.4h9.8L317.5,63.1z M307.5,86.9l0.2-0.9
				l3.4-7.8c1.4-3.3,1.8-4.4,1.5-5.3h0.4l5.5,13.1l0.2,0.9H307.5z"/>
		</g>
		<path d="M577.2,86.2c-1.3-1.2-2.3-1.8-3.6-1.8v-0.4l23.7-21h-10.5l-23.2,20.5h-0.4V63.1h-9.8v44.6h9.8V85.4c1.2,0,2,0.4,3.8,2.2
			l21.6,20h11.6L577.2,86.2z"/>
		<path d="M471,84.5v-0.4l23.7-21h-10.5l-23.2,20.5h-0.4V63.1h-9.8v44.6h9.8V85.4c1.2,0,2,0.4,3.8,2.2l21.6,20h11.6l-23.1-21.4
			C473.3,85.1,472.3,84.5,471,84.5z"/>
		<path d="M520.8,61.6L520.8,61.6c-14.9,0-24.9,9.5-24.9,23.6s10,23.6,24.9,23.6h0.1c14.8,0,24.9-9.5,24.9-23.6
			S535.7,61.6,520.8,61.6z M534.9,86.3c0,10.9-5.2,17.3-14.1,17.3h-0.1c-8.9,0-14.1-6.4-14.1-17.3v-2.1c0-10.9,5.2-17.3,14.1-17.3
			h0.1c8.9,0,14.1,6.4,14.1,17.3V86.3z"/>
		<path d="M379.6,94.2h-0.4c-0.3-1.2-1.1-2.9-3.1-5.1l-23.7-26h-9.7v0.5c1,0.4,1.7,2,1.7,3.9v40.1h8.6V81.2c0-4-0.4-4.8-1-5.5
			l0.4-0.3l27.5,30.1v2.1h8.4V63.1h-8.6V94.2z"/>
		<path d="M430.7,84.6c1.4,0.4,2.1,1.5,2.1,3.8v8.8c0,2.1,0.5,3.3,1.7,4l-0.2,0.4c-0.8,0-1.3,0.1-3.2,0.4c-3.1,0.6-6,1-8.2,1
			c-10.9,0-17.3-6.1-17.3-16.5v-1.1c0-11.1,6.5-17.7,17.3-17.7c6.1,0,11.4,2.1,16.7,6.7v-9.1c-5.6-2.5-10.7-3.6-16.7-3.6
			c-17.8,0-28,8.7-28,24.2c0,14.4,10.4,22.9,28,22.9c4.4,0,9-0.6,14-1.9c2.5-0.6,3.4-0.5,4.2,0.6h0.5V84.1h-10.9V84.6z"/>
	</g>
</g>
</svg>
